<mxfile host="app.diagrams.net" modified="2023-09-26T20:55:46.022Z" agent="Mozilla/5.0 (Windows NT 10.0; Win64; x64) AppleWebKit/537.36 (KHTML, like Gecko) Chrome/116.0.0.0 Safari/537.36" etag="mKiOB0JaPPVD8Q0HViem" version="21.8.2" type="google">
  <diagram id="C5RBs43oDa-KdzZeNtuy" name="Page-1">
    <mxGraphModel grid="1" page="1" gridSize="10" guides="1" tooltips="1" connect="1" arrows="1" fold="1" pageScale="1" pageWidth="827" pageHeight="1169" math="0" shadow="0">
      <root>
        <mxCell id="WIyWlLk6GJQsqaUBKTNV-0" />
        <mxCell id="WIyWlLk6GJQsqaUBKTNV-1" parent="WIyWlLk6GJQsqaUBKTNV-0" />
        <mxCell id="S5O8IFmX5ptZKu_9x33s-0" value="Task 1" style="shape=note;whiteSpace=wrap;html=1;backgroundOutline=1;fontColor=#000000;darkOpacity=0.05;fillColor=#FFF9B2;strokeColor=none;fillStyle=solid;direction=west;gradientDirection=north;gradientColor=#FFF2A1;shadow=1;size=20;pointerEvents=1;" vertex="1" parent="WIyWlLk6GJQsqaUBKTNV-1">
          <mxGeometry x="190" y="10" width="110" height="30" as="geometry" />
        </mxCell>
        <mxCell id="S5O8IFmX5ptZKu_9x33s-3" value="" style="edgeStyle=orthogonalEdgeStyle;rounded=0;orthogonalLoop=1;jettySize=auto;html=1;entryX=0.5;entryY=0;entryDx=0;entryDy=0;" edge="1" parent="WIyWlLk6GJQsqaUBKTNV-1" source="S5O8IFmX5ptZKu_9x33s-1" target="S5O8IFmX5ptZKu_9x33s-4">
          <mxGeometry relative="1" as="geometry">
            <mxPoint x="245" y="170" as="targetPoint" />
          </mxGeometry>
        </mxCell>
        <mxCell id="S5O8IFmX5ptZKu_9x33s-1" value="start" style="rounded=1;whiteSpace=wrap;html=1;" vertex="1" parent="WIyWlLk6GJQsqaUBKTNV-1">
          <mxGeometry x="185" y="60" width="120" height="60" as="geometry" />
        </mxCell>
        <mxCell id="S5O8IFmX5ptZKu_9x33s-8" value="" style="edgeStyle=orthogonalEdgeStyle;rounded=0;orthogonalLoop=1;jettySize=auto;html=1;" edge="1" parent="WIyWlLk6GJQsqaUBKTNV-1" source="S5O8IFmX5ptZKu_9x33s-4" target="S5O8IFmX5ptZKu_9x33s-6">
          <mxGeometry relative="1" as="geometry" />
        </mxCell>
        <mxCell id="S5O8IFmX5ptZKu_9x33s-4" value="input 1st and 2nd digits" style="shape=parallelogram;perimeter=parallelogramPerimeter;whiteSpace=wrap;html=1;fixedSize=1;" vertex="1" parent="WIyWlLk6GJQsqaUBKTNV-1">
          <mxGeometry x="182.5" y="180" width="125" height="60" as="geometry" />
        </mxCell>
        <mxCell id="S5O8IFmX5ptZKu_9x33s-10" value="" style="edgeStyle=orthogonalEdgeStyle;rounded=0;orthogonalLoop=1;jettySize=auto;html=1;" edge="1" parent="WIyWlLk6GJQsqaUBKTNV-1" source="S5O8IFmX5ptZKu_9x33s-6" target="S5O8IFmX5ptZKu_9x33s-9">
          <mxGeometry relative="1" as="geometry" />
        </mxCell>
        <mxCell id="S5O8IFmX5ptZKu_9x33s-6" value="process&lt;br&gt;Total amount" style="rounded=0;whiteSpace=wrap;html=1;" vertex="1" parent="WIyWlLk6GJQsqaUBKTNV-1">
          <mxGeometry x="185" y="270" width="120" height="60" as="geometry" />
        </mxCell>
        <mxCell id="S5O8IFmX5ptZKu_9x33s-15" value="" style="edgeStyle=orthogonalEdgeStyle;rounded=0;orthogonalLoop=1;jettySize=auto;html=1;exitX=0.502;exitY=0.89;exitDx=0;exitDy=0;exitPerimeter=0;" edge="1" parent="WIyWlLk6GJQsqaUBKTNV-1" source="S5O8IFmX5ptZKu_9x33s-9" target="S5O8IFmX5ptZKu_9x33s-13">
          <mxGeometry relative="1" as="geometry" />
        </mxCell>
        <mxCell id="S5O8IFmX5ptZKu_9x33s-9" value="output" style="shape=document;whiteSpace=wrap;html=1;boundedLbl=1;rounded=0;" vertex="1" parent="WIyWlLk6GJQsqaUBKTNV-1">
          <mxGeometry x="185" y="370" width="120" height="80" as="geometry" />
        </mxCell>
        <mxCell id="S5O8IFmX5ptZKu_9x33s-13" value="end" style="rounded=1;whiteSpace=wrap;html=1;" vertex="1" parent="WIyWlLk6GJQsqaUBKTNV-1">
          <mxGeometry x="185" y="470" width="120" height="60" as="geometry" />
        </mxCell>
        <mxCell id="S5O8IFmX5ptZKu_9x33s-16" value="Task 2" style="shape=note;whiteSpace=wrap;html=1;backgroundOutline=1;fontColor=#000000;darkOpacity=0.05;fillColor=#FFF9B2;strokeColor=none;fillStyle=solid;direction=west;gradientDirection=north;gradientColor=#FFF2A1;shadow=1;size=20;pointerEvents=1;" vertex="1" parent="WIyWlLk6GJQsqaUBKTNV-1">
          <mxGeometry x="400" y="10" width="110" height="30" as="geometry" />
        </mxCell>
        <mxCell id="S5O8IFmX5ptZKu_9x33s-19" value="" style="edgeStyle=orthogonalEdgeStyle;rounded=0;orthogonalLoop=1;jettySize=auto;html=1;" edge="1" parent="WIyWlLk6GJQsqaUBKTNV-1" source="S5O8IFmX5ptZKu_9x33s-17" target="S5O8IFmX5ptZKu_9x33s-18">
          <mxGeometry relative="1" as="geometry" />
        </mxCell>
        <mxCell id="S5O8IFmX5ptZKu_9x33s-17" value="start" style="rounded=1;whiteSpace=wrap;html=1;" vertex="1" parent="WIyWlLk6GJQsqaUBKTNV-1">
          <mxGeometry x="400" y="60" width="120" height="60" as="geometry" />
        </mxCell>
        <mxCell id="S5O8IFmX5ptZKu_9x33s-22" value="" style="edgeStyle=orthogonalEdgeStyle;rounded=0;orthogonalLoop=1;jettySize=auto;html=1;" edge="1" parent="WIyWlLk6GJQsqaUBKTNV-1" source="S5O8IFmX5ptZKu_9x33s-18" target="S5O8IFmX5ptZKu_9x33s-20">
          <mxGeometry relative="1" as="geometry" />
        </mxCell>
        <mxCell id="S5O8IFmX5ptZKu_9x33s-18" value="int num1, int num2, int num3" style="shape=parallelogram;perimeter=parallelogramPerimeter;whiteSpace=wrap;html=1;fixedSize=1;" vertex="1" parent="WIyWlLk6GJQsqaUBKTNV-1">
          <mxGeometry x="400" y="160" width="120" height="60" as="geometry" />
        </mxCell>
        <mxCell id="S5O8IFmX5ptZKu_9x33s-24" value="true&amp;nbsp;" style="edgeStyle=orthogonalEdgeStyle;rounded=0;orthogonalLoop=1;jettySize=auto;html=1;" edge="1" parent="WIyWlLk6GJQsqaUBKTNV-1" source="S5O8IFmX5ptZKu_9x33s-20" target="S5O8IFmX5ptZKu_9x33s-23">
          <mxGeometry relative="1" as="geometry" />
        </mxCell>
        <mxCell id="S5O8IFmX5ptZKu_9x33s-26" value="false" style="edgeStyle=orthogonalEdgeStyle;rounded=0;orthogonalLoop=1;jettySize=auto;html=1;" edge="1" parent="WIyWlLk6GJQsqaUBKTNV-1" source="S5O8IFmX5ptZKu_9x33s-20">
          <mxGeometry relative="1" as="geometry">
            <mxPoint x="460" y="475" as="targetPoint" />
          </mxGeometry>
        </mxCell>
        <mxCell id="S5O8IFmX5ptZKu_9x33s-20" value="num != num1 num != num2 num != num3" style="rhombus;whiteSpace=wrap;html=1;" vertex="1" parent="WIyWlLk6GJQsqaUBKTNV-1">
          <mxGeometry x="390" y="260" width="140" height="135" as="geometry" />
        </mxCell>
        <mxCell id="S5O8IFmX5ptZKu_9x33s-23" value="with difference" style="shape=document;whiteSpace=wrap;html=1;boundedLbl=1;" vertex="1" parent="WIyWlLk6GJQsqaUBKTNV-1">
          <mxGeometry x="620" y="287.5" width="120" height="80" as="geometry" />
        </mxCell>
        <mxCell id="S5O8IFmX5ptZKu_9x33s-29" value="" style="edgeStyle=orthogonalEdgeStyle;rounded=0;orthogonalLoop=1;jettySize=auto;html=1;" edge="1" parent="WIyWlLk6GJQsqaUBKTNV-1" source="S5O8IFmX5ptZKu_9x33s-27" target="S5O8IFmX5ptZKu_9x33s-28">
          <mxGeometry relative="1" as="geometry" />
        </mxCell>
        <mxCell id="S5O8IFmX5ptZKu_9x33s-27" value="without difference" style="shape=document;whiteSpace=wrap;html=1;boundedLbl=1;" vertex="1" parent="WIyWlLk6GJQsqaUBKTNV-1">
          <mxGeometry x="400" y="470" width="120" height="80" as="geometry" />
        </mxCell>
        <mxCell id="S5O8IFmX5ptZKu_9x33s-28" value="end" style="rounded=1;whiteSpace=wrap;html=1;" vertex="1" parent="WIyWlLk6GJQsqaUBKTNV-1">
          <mxGeometry x="400" y="660" width="120" height="60" as="geometry" />
        </mxCell>
        <mxCell id="S5O8IFmX5ptZKu_9x33s-30" value="" style="edgeStyle=orthogonalEdgeStyle;rounded=0;orthogonalLoop=1;jettySize=auto;html=1;entryX=1;entryY=0.5;entryDx=0;entryDy=0;" edge="1" parent="WIyWlLk6GJQsqaUBKTNV-1" target="S5O8IFmX5ptZKu_9x33s-28">
          <mxGeometry relative="1" as="geometry">
            <mxPoint x="690" y="350" as="sourcePoint" />
            <mxPoint x="690" y="460" as="targetPoint" />
            <Array as="points">
              <mxPoint x="690" y="690" />
            </Array>
          </mxGeometry>
        </mxCell>
      </root>
    </mxGraphModel>
  </diagram>
</mxfile>
